<svg width="101" height="101" viewBox="0 0 101 101" fill="none" xmlns="http://www.w3.org/2000/svg">
<path fill-rule="evenodd" clip-rule="evenodd" d="M56.471 67.6161C58.5805 69.0325 59.9688 71.4401 59.9688 74.1719C59.9688 78.5297 56.436 82.0625 52.0781 82.0625C47.7203 82.0625 44.1875 78.5297 44.1875 74.1719C44.1875 71.4401 45.5757 69.0325 47.6853 67.6161L52.0781 44.1875L56.471 67.6161ZM92.4038 75.3449C93.8842 71.0174 94.6875 66.376 94.6875 61.5469C94.6875 38.0144 75.6106 18.9375 52.0781 18.9375C28.5456 18.9375 9.46875 38.0144 9.46875 61.5469C9.46875 66.376 10.2721 71.0174 11.7524 75.3449L14.7759 74.4287C13.382 70.3916 12.625 66.0577 12.625 61.5469C12.625 39.7575 30.2888 22.0938 52.0781 22.0938C73.8675 22.0938 91.5312 39.7575 91.5312 61.5469C91.5312 66.0577 90.7742 70.3916 89.3803 74.4287L92.4038 75.3449ZM52.0781 78.9062C54.6928 78.9062 56.8125 76.7866 56.8125 74.1719C56.8125 71.5572 54.6928 69.4375 52.0781 69.4375C49.4634 69.4375 47.3438 71.5572 47.3438 74.1719C47.3438 76.7866 49.4634 78.9062 52.0781 78.9062ZM52.0781 25.25C51.2066 25.25 50.5 25.9288 50.5 26.7981V36.3269C50.5 37.1819 51.232 37.875 52.0781 37.875C52.9497 37.875 53.6562 37.1962 53.6562 36.3269V26.7981C53.6562 25.9431 52.9242 25.25 52.0781 25.25ZM73.4188 32.184C72.7137 31.6717 71.7431 31.8055 71.2321 32.5088L65.6312 40.2178C65.1287 40.9095 65.3135 41.9005 65.998 42.3978C66.7031 42.9101 67.6737 42.7763 68.1847 42.073L73.7856 34.364C74.2881 33.6723 74.1033 32.6813 73.4188 32.184ZM86.608 50.3374C86.3387 49.5085 85.4748 49.0463 84.6481 49.3149L75.5856 52.2595C74.7724 52.5237 74.3395 53.4341 74.6009 54.2388C74.8703 55.0677 75.7342 55.5299 76.5609 55.2613L85.6234 52.3167C86.4365 52.0525 86.8695 51.1421 86.608 50.3374ZM86.608 72.7763C86.8774 71.9474 86.4501 71.0657 85.6234 70.7971L76.5609 67.8525C75.7478 67.5883 74.8624 68.0703 74.6009 68.875C74.3316 69.7039 74.7588 70.5856 75.5856 70.8543L84.6481 73.7988C85.4612 74.063 86.3466 73.581 86.608 72.7763ZM17.5482 72.7763C17.8175 73.6053 18.6814 74.0675 19.5082 73.7988L28.5707 70.8543C29.3838 70.5901 29.8168 69.6797 29.5553 68.875C29.286 68.0461 28.4221 67.5839 27.5953 67.8525L18.5329 70.7971C17.7197 71.0613 17.2868 71.9717 17.5482 72.7763ZM17.5482 50.3374C17.2789 51.1664 17.7061 52.0481 18.5329 52.3167L27.5953 55.2613C28.4085 55.5255 29.2939 55.0435 29.5553 54.2388C29.8246 53.4099 29.3974 52.5281 28.5707 52.2595L19.5082 49.3149C18.6951 49.0507 17.8097 49.5328 17.5482 50.3374ZM30.7375 32.184C30.0324 32.6963 29.8597 33.6607 30.3707 34.364L35.9716 42.073C36.4741 42.7647 37.4738 42.8952 38.1583 42.3978C38.8634 41.8855 39.036 40.9211 38.5251 40.2178L32.9241 32.5088C32.4216 31.8171 31.422 31.6867 30.7375 32.184Z" fill="white"/>
</svg>
