<svg width="195" height="206" viewBox="0 0 195 206" fill="none" xmlns="http://www.w3.org/2000/svg">
<circle cx="101.5" cy="102.5" r="73" stroke="white" stroke-width="3"/>
<line x1="102.5" y1="23.5" x2="102.5" y2="35.5" stroke="white" stroke-width="3" stroke-linecap="round"/>
<line x1="102.5" y1="169.5" x2="102.5" y2="181.5" stroke="white" stroke-width="3" stroke-linecap="round"/>
<line x1="22.5" y1="101.5" x2="34.5" y2="101.5" stroke="white" stroke-width="3" stroke-linecap="round"/>
<line x1="168.5" y1="101.5" x2="180.5" y2="101.5" stroke="white" stroke-width="3" stroke-linecap="round"/>
<path d="M108.295 4.45455V19H106.591L98.6648 7.57955H98.5227V19H96.7614V4.45455H98.4659L106.42 15.9034H106.562V4.45455H108.295Z" fill="white"/>
<path d="M4.40341 108L0.426136 93.4545H2.21591L5.25568 105.301H5.39773L8.49432 93.4545H10.483L13.5795 105.301H13.7216L16.7614 93.4545H18.5511L14.5739 108H12.7557L9.54545 96.4091H9.43182L6.22159 108H4.40341Z" fill="white"/>
<path d="M105.716 190.091C105.631 189.371 105.285 188.812 104.679 188.415C104.073 188.017 103.33 187.818 102.449 187.818C101.805 187.818 101.241 187.922 100.759 188.131C100.28 188.339 99.9063 188.625 99.6364 188.99C99.3712 189.355 99.2386 189.769 99.2386 190.233C99.2386 190.621 99.331 190.955 99.5156 191.234C99.705 191.509 99.9465 191.739 100.24 191.923C100.534 192.103 100.841 192.252 101.163 192.371C101.485 192.484 101.781 192.577 102.051 192.648L103.528 193.045C103.907 193.145 104.329 193.282 104.793 193.457C105.261 193.633 105.709 193.872 106.135 194.175C106.566 194.473 106.921 194.857 107.2 195.325C107.48 195.794 107.619 196.369 107.619 197.051C107.619 197.837 107.413 198.547 107.001 199.182C106.594 199.816 105.998 200.321 105.212 200.695C104.43 201.069 103.481 201.256 102.364 201.256C101.322 201.256 100.42 201.088 99.6577 200.751C98.9001 200.415 98.3035 199.946 97.8679 199.345C97.437 198.744 97.1932 198.045 97.1364 197.25H98.9545C99.0019 197.799 99.1866 198.254 99.5085 198.614C99.8352 198.969 100.247 199.234 100.744 199.409C101.246 199.58 101.786 199.665 102.364 199.665C103.036 199.665 103.64 199.556 104.175 199.338C104.71 199.116 105.134 198.808 105.446 198.415C105.759 198.017 105.915 197.553 105.915 197.023C105.915 196.54 105.78 196.147 105.51 195.844C105.24 195.541 104.885 195.295 104.445 195.105C104.004 194.916 103.528 194.75 103.017 194.608L101.227 194.097C100.091 193.77 99.1913 193.304 98.5284 192.697C97.8655 192.091 97.5341 191.298 97.5341 190.318C97.5341 189.504 97.7543 188.794 98.1946 188.188C98.6397 187.577 99.2363 187.103 99.9844 186.767C100.737 186.426 101.578 186.256 102.506 186.256C103.443 186.256 104.277 186.424 105.006 186.76C105.735 187.091 106.313 187.546 106.739 188.124C107.17 188.701 107.397 189.357 107.42 190.091H105.716Z" fill="white"/>
<path d="M184.761 108V93.4545H193.54V95.017H186.523V99.9318H193.085V101.494H186.523V106.438H193.653V108H184.761Z" fill="white"/>
</svg>
