<svg width="129" height="129" viewBox="0 0 129 129" fill="none" xmlns="http://www.w3.org/2000/svg">
<path d="M74.2096 34.988C75.189 34.9709 76.162 35.149 77.0718 35.512C77.9816 35.875 78.81 36.4156 79.5086 37.1021C80.2072 37.7887 80.7621 38.6075 81.1409 39.5109C81.5197 40.4142 81.7148 41.3839 81.7148 42.3634C81.7148 43.343 81.5197 44.3127 81.1409 45.216C80.7621 46.1193 80.2072 46.9382 79.5086 47.6247C78.81 48.3113 77.9816 48.8519 77.0718 49.2149C76.162 49.5778 75.189 49.756 74.2096 49.7389H28.8411" stroke="white" stroke-width="5.33322" stroke-linecap="round" stroke-linejoin="round"/>
<path d="M93.9112 43.4152C96.8194 43.4152 99.6084 44.5704 101.665 46.6268C103.721 48.6832 104.876 51.4722 104.876 54.3804C104.876 57.2886 103.721 60.0776 101.665 62.134C99.6084 64.1904 96.8194 65.3456 93.9112 65.3456H68.074" stroke="white" stroke-width="5.33322" stroke-linecap="round" stroke-linejoin="round"/>
<path d="M74.2096 94.9932C75.189 95.0103 76.162 94.8321 77.0718 94.4691C77.9816 94.1061 78.81 93.5656 79.5086 92.879C80.2072 92.1925 80.7621 91.3736 81.1409 90.4703C81.5197 89.567 81.7148 88.5972 81.7148 87.6177C81.7148 86.6382 81.5197 85.6685 81.1409 84.7651C80.7621 83.8618 80.2072 83.043 79.5086 82.3564C78.81 81.6698 77.9816 81.1293 77.0718 80.7663C76.162 80.4033 75.189 80.2252 74.2096 80.2422H28.8411" stroke="white" stroke-width="5.33322" stroke-linecap="round" stroke-linejoin="round"/>
<path d="M51.5669 65.3367H36.7509" stroke="white" stroke-width="5.33322" stroke-linecap="round" stroke-linejoin="round"/>
</svg>
